<?xml version="1.0" encoding="UTF-8"?>
<svg xmlns="http://www.w3.org/2000/svg" version="1.1" viewBox="0 0 256 256">
  <defs>
    <style>
      .ext-viewtracker-st0, .ext-viewtracker-st1 {
        fill: #fff;
      }

      .ext-viewtracker-st2 {
        fill: #265fbc;
      }

      .ext-viewtracker-st1 {
        isolation: isolate;
        opacity: .4;
      }
    </style>
  </defs>
  <rect class="ext-viewtracker-st2" width="256" height="256"/>
  <path class="ext-viewtracker-st1" d="M128,57.5c-45.7,0-86.7,28-103.4,70.5,22.5,57.1,87,85.2,144.1,62.7,28.7-11.3,51.4-34,62.7-62.7-16.7-42.5-57.7-70.5-103.4-70.5ZM128,175.1c-26,0-47-21.1-47-47s21.1-47,47-47,47,21.1,47,47h0c0,26-21.1,47-47,47ZM128.8,102.6c-14.1,0-25.5,11.5-25.3,25.7.2,13.4,11.5,24.8,25,25,14.2.2,25.7-11.2,25.7-25.3h0c0-14-11.4-25.3-25.3-25.3h0Z"/>
  <path class="ext-viewtracker-st0" d="M188.7,125.1h-9.8c-1.4-25.4-21.8-45.9-47.2-47.4v-9.6c0-1.7-1.3-3-3-3s-3,1.3-3,3v9.6c-12.4.7-24,5.9-32.8,14.9-8.7,8.8-13.7,20.2-14.4,32.5h-9.8c-1.7,0-3,1.3-3,3s1.3,3,3,3h9.8c.8,12,6,23.3,14.8,32.1,8.9,8.9,20.3,14.1,32.4,14.8v10c0,1.7,1.3,3,3,3s3-1.3,3-3v-10c12.2-.7,23.5-5.7,32.3-14.4,8.9-8.7,14.1-20.2,14.8-32.6h9.8c1.7,0,3-1.3,3-3s-1.3-3-3-3h0ZM159.9,159.4c-7.6,7.5-17.5,11.9-28.1,12.6v-9.8c0-1.7-1.3-3-3-3s-3,1.3-3,3v9.8c-21.4-1.5-39.5-19.5-41.1-40.9h10c1.7,0,3-1.3,3-3s-1.3-3-3-3h-10c.7-10.7,5.1-20.6,12.6-28.3,7.7-7.8,17.7-12.3,28.5-13.1v10.2c0,1.7,1.3,3,3,3s3-1.3,3-3v-10.3c22.1,1.5,39.8,19.2,41.1,41.3h-10c-1.7,0-3,1.3-3,3s1.3,3,3,3h10c-.8,10.7-5.3,20.7-13,28.3v.2Z"/>
</svg>