<svg xmlns="http://www.w3.org/2000/svg" viewBox="0 0 64 64"><rect width="64" height="64" rx="4" ry="4" style="fill:#59f" /><path d="M32,18c-8.839355,0-16.769775,5.561768-20,14.003906,4.352051,11.342285,16.827881,16.924072,27.872314,12.454712,5.55127-2.244629,9.942139-6.753784,12.127686-12.454712-3.230225-8.442139-11.160645-14.003906-20-14.003906ZM32,40c-4.411133,0-8-3.588867-8-8s3.588867-8,8-8,8,3.588867,8,8-3.588867,8-8,8Z" style="isolation:isolate;opacity:.4;fill:#131313" /><circle cx="32" cy="32" r="4" style="fill:#131313" /><path d="M46,30h-2.180664c-.846436-5.014404-4.804932-8.9729-9.819336-9.819336v-2.180664c0-1.104492-.895508-2-2-2s-2,.895508-2,2v2.180664c-5.014404.846436-8.9729,4.804932-9.819336,9.819336h-2.180664c-1.104492,0-2,.895508-2,2s.895508,2,2,2h2.180664c.846436,5.014404,4.804932,8.9729,9.819336,9.819336v2.180664c0,1.104492.895508,2,2,2s2-.895508,2-2v-2.180664c5.014404-.846436,8.9729-4.804932,9.819336-9.819336h2.180664c1.104492,0,2-.895508,2-2s-.895508-2-2-2ZM32,40c-4.411133,0-8-3.588867-8-8s3.588867-8,8-8,8,3.588867,8,8-3.588867,8-8,8Z" style="fill:#131313" /></svg>
